<?xml version="1.0" encoding="utf-8"?>
<!-- Generator: Adobe Illustrator 18.0.0, SVG Export Plug-In . SVG Version: 6.00 Build 0)  -->
<!DOCTYPE svg PUBLIC "-//W3C//DTD SVG 1.1//EN" "http://www.w3.org/Graphics/SVG/1.1/DTD/svg11.dtd">
<svg version="1.1" id="Camada_1" xmlns="http://www.w3.org/2000/svg" xmlns:xlink="http://www.w3.org/1999/xlink" x="0px" y="0px"
	 viewBox="0 0 1000 1000" enable-background="new 0 0 1000 1000" xml:space="preserve">
<g>
	<g>
		<path fill="#5344FF" d="M378.8,872.6l37.8,5.7c-1.8,15.4-4.9,34.4-8.3,39.8l-6,4.9c-81.6-19.4-154.1-62.4-209.9-121.4
			c4.2,0.4,8.6,0.5,13,0.5c17.3,0,35.2-2.7,53.2-7.8c37.3,31.9,81,56.5,128.9,71.7L378.8,872.6z"/>
		<path fill="#5344FF" d="M872.3,511.1c0-87.4-30.3-167.9-80.9-231.5c9-18.6,14.8-38.1,17.4-57.8c71,75.8,114.5,177.5,114.5,289.3
			c0,87.5-26.7,168.9-72.3,236.5c-2.9-4.6-5.6-8.9-8.1-12.7l0.1-0.7c1.6-7.9-1.5-14.9-15.2-34.1c-1.2-1.7-2.6-3.6-4-5.5
			C854.7,640.3,872.3,577.7,872.3,511.1z"/>
	</g>
	<path fill="#5344FF" d="M760.6,245.5c-35.1-34.4-76.9-61.9-123.2-80.4c4.8-0.4,9.6-0.6,14.2-0.6c27.1,0,51.1,6.8,73.6,20.9
		C748.6,200,760.6,220.5,760.6,245.5z"/>
	<path fill="#5344FF" d="M563.9,237.2c2.4,3.9,4.1,6.9,4.9,9.4c2,6-0.5,9.6-7.9,17.5c-2.3,2.5-5.1,4.6-8.6,7.8
		c-1-2.2-2.1-4.4-3.2-6.5c-9.7-18.2-23.6-32.2-40.8-44.4c-2.2-1.6-4.5-3.2-6.9-4.7c-0.2-0.1-0.5-0.3-0.7-0.5
		c1.6-1.1,3.3-2.1,4.9-3.2l0,0c9.5-6.2,18.6-12,29-18.8c1.1,1.7,2.3,3.3,3.4,5C547.2,212.1,556,224.3,563.9,237.2z"/>
	<path fill="#5344FF" d="M840.9,761.8c-12-19.4-22.7-35.4-22.7-35.4l9.2,4.5c0.5-2.2-4.6-10.4-12.4-21.4
		c-23.6-33.2-72.6-92.5-72.6-92.5l13.7,5.4c10.1-44.8-199.8-207.5-199.8-207.5v-3.5c-1.1-2.8-0.5-6.3,2.6-8.6
		c0.1-0.1,0.3-0.2,0.4-0.3c15.6-11.9,31.6-23.7,45.4-37.5c29.7-29.7,36.8-65.4,22.4-104.8c-4.6-12.6-11-24.6-17.5-38.8
		c-5.2,6.6-9.1,11.5-12.8,16.5c-31.3,42.5-71.7,70.3-124.7,78.6c-26,4.1-51,11.9-72.4,29.2c14.1-23.7,26.1-48.9,41.5-71.7
		c37.9-56.2,86.9-99.1,153.8-117.4c3.4-1,6.9-1.8,10.3-2.6c15.6-3.6,31.1-5.6,46.3-5.6c28.3,0,55.8,6.9,82.1,23.4
		c32.9,20.6,47.3,52.4,41.7,89.2c-0.5,3.6-1.3,7.3-2.2,11c-0.7,3-1.1,6.1-2,11.6c3.3-5.8,6.2-11.6,8.8-17.5
		c8.6-19.5,13.2-39.5,14.2-59c3.8-74.4-44.3-143.5-125.6-165.5c-19.4-5.3-38.4-7.7-56.9-7.7c-45.7,0-88.9,15.1-129.8,41
		c-7.5,4.8-14.8,9.8-21.9,15c-2.6,1.9-5.1,3.9-7.6,5.8c-5.7,4.4-11.2,9-16.5,13.8c-7.8,6.8-15.2,14-22.3,21.5
		c-7.4,7.7-14.5,15.7-21.3,23.9c-19.6,23.8-36.8,49.7-52.4,77.1c-16.2,28.5-29.1,59-44,88.3c-3.3,6.5-7.3,12.7-11.7,18.5
		c-0.7,0.9-1.5,1.9-2.2,2.8c-0.1,0.1-0.1,0.1-0.2,0.2c-2.7,3.4-5.4,6.8-8,10.2c-29.5,38.4-53.1,80.4-74.1,123.9
		c-20.8,43.3-39.9,87.5-59.5,131.5c-2,4.4-3.9,8.8-5.9,13.2c-0.9,2-1.7,4-2.9,5.7c-11.2,16.1-18.3,32.6-21.4,49.7
		c-4,21.9-1.6,44.7,6.5,68.7c4.9,14.4,26.4,31.8,59.3,38.6c9,1.9,18.9,3,29.5,3c12.1,0,25.1-1.4,38.9-4.6
		c22.8-5.3,47.7-15.4,74.1-32.4c30.6-19.6,67.2-46.3,110.8-82.3c0,0,2.5,102.4-19.1,130.6c0,0,0.6,0,1.6,0c5.1,0,20.6-0.6,21.3-7.8
		c0-0.5,0.1-0.8,0.2-0.8c1.1,0,3.9,60.1-14.1,73.6c0,0,3.2,0.5,6.7,0.5c3.8,0,7.9-0.6,8.2-3.1c0-0.2,0-0.2,0.1-0.2
		c0.1,0-0.2,7.6-1.3,17.8c-1.7,16.7-5.2,40.3-11.3,49.8c-0.8,1.2-1.6,2.2-2.4,2.8c0,0,6.2,3.3,12.5,3.3c3,0,6.1-0.8,8.4-3.1
		c1.3-1.3,2.4-3.1,3.2-5.5c-0.2,0.8-0.7,2.9-1.5,5.7c-2.1,7.6-6,20.7-10.7,30.9c23.6,3.2,47.6,4.9,72.1,4.9
		c143.1,0,272.9-57,367.9-149.6C865.6,802.9,852.6,780.7,840.9,761.8z M302.8,455.3c-17.1,11.5-34.2,22.8-50.4,33.7
		c-0.1-47.3,29.1-72.6,71-87.5C329.1,421.6,320.9,443.2,302.8,455.3z"/>
	<path fill="#5344FF" d="M118.1,617.1c-7.6,10.9-13.6,22.1-17.8,33.6C85,607,76.6,560,76.6,511.1c0-209.3,152.7-383.7,352.6-417.4
		c-5.4,4.6-10.6,9.4-15.8,14.4l-14,4.5c-49.2,16-84.6,45.8-105,88.2C194,267.5,127.7,381.7,127.7,511.1c0,23.9,2.3,47.3,6.6,70
		c-4.8,10.9-9.7,21.9-14.6,32.8c-0.2,0.4-0.4,0.8-0.6,1.2C118.8,615.8,118.3,616.8,118.1,617.1z"/>
	<path fill="#5344FF" d="M323.9,183.1c15.9-21.3,37.5-38,65.2-49.6c-8.5,9.7-16.8,19.9-24.8,30.8c-13.5,18.2-26.3,38-38.5,59.5
		c-10.5,18.5-19.7,37.9-28.6,56.6c-2.4,5.1-4.9,10.2-7.3,15.4C290.8,250.9,301.8,212.6,323.9,183.1z"/>
</g>
</svg>
